<svg width="53" height="30" viewBox="0 0 53 30" xmlns="http://www.w3.org/2000/svg">
    <path d="M51.678 20.573c-6.405-13.117-14.519-20.343-23.33-20.343-10.911 0-21.078 14.157-27.491 27.292-.695 1.355-.677 1.441-.661 1.509.018.109.047.258.188.349.684.433 2.03.636 2.725.636 1.507 0 2.918-.873 3.681-2.285l.102-.237c5.465-10.457 13.422-22.042 21.457-22.042 6.656 0 11.826 4.737 17.361 15.363.763 1.404 2.173 2.28 3.681 2.28.692 0 2.04-.203 2.719-.638.118-.068.201-.195.23-.336.016-.073.034-.149-.418-1.05l-.243-.498zm-16.908-5.123c-.047-.01-12.084-.01-12.095-.005-2.27.164-4.046 2.019-4.046 4.219 0 .281.232.508.52.508h19.111c.287 0 .522-.227.522-.508 0-2.199-1.779-4.054-4.012-4.213z"
          fill="#000"/>
</svg>